<svg id="Capa_1" data-name="Capa 1" xmlns="http://www.w3.org/2000/svg" viewBox="0 0 16.05 16.05"><defs><style>.cls-1{fill:#fff;stroke:#fff;stroke-miterlimit:10;stroke-width:0.25px;}</style></defs><circle class="cls-1" cx="8.02" cy="8.02" r="7.9"/><path d="M1.22,12v-.12l.24-.09A.73.73,0,0,0,2,11.19l.64-3.42c.08-.43.17-.9.26-1.43s.18-1,.26-1.48a.54.54,0,0,0-.35-.63l-.15-.06,0-.12h3v.12l-.3.09a.75.75,0,0,0-.51.6L4.15,8.23c-.07.34-.13.71-.21,1.13l-.21,1.23c-.07.41-.14.79-.19,1.14H4.82a2,2,0,0,0,.88-.19A1.85,1.85,0,0,0,6.37,11l1-1.31h.12L6.93,12Z" transform="translate(0.02 0.02)"/><path d="M11.39,12.17a3.85,3.85,0,0,1-2.73-.92,3.36,3.36,0,0,1-1-2.57A5.24,5.24,0,0,1,8,6.76,4.81,4.81,0,0,1,9,5.22a4.66,4.66,0,0,1,3.36-1.39,4.74,4.74,0,0,1,2.34.6l-.28,1.88h-.12l-.46-1.24a1.76,1.76,0,0,0-.46-.78,1.36,1.36,0,0,0-.87-.22,2.39,2.39,0,0,0-1.63.61A3.82,3.82,0,0,0,9.8,6.33a6.86,6.86,0,0,0-.39,2.4,4.87,4.87,0,0,0,.27,1.71,2.58,2.58,0,0,0,.72,1.11,1.6,1.6,0,0,0,1,.38.82.82,0,0,0,.5-.13.68.68,0,0,0,.25-.49l.07-.38c0-.25.09-.55.14-.88s.11-.66.15-1A.68.68,0,0,0,12,8.23l-.26-.08,0-.12H15l0,.12-.26.12a.83.83,0,0,0-.54.67l-.52,2.73a7.36,7.36,0,0,1-1.06.36A5.1,5.1,0,0,1,11.39,12.17Z" transform="translate(0.02 0.02)"/></svg>